<svg width="263" height="171" viewBox="0 0 263 171" fill="none" xmlns="http://www.w3.org/2000/svg">
<path d="M37.8968 51.2565C38.6466 52.0073 38.9874 53.031 38.9874 54.396C38.9874 55.7611 38.6466 56.7848 37.8968 57.4673C37.1471 58.2181 36.1247 58.5594 34.7615 58.5594L5.52073 58.5594C3.74857 58.5594 2.38536 58.0816 1.43112 57.1261C0.476877 56.1706 -0.000244141 54.8056 -0.000244141 52.9628L-0.000244141 6.34731C-0.000244141 4.57278 0.476877 3.20776 1.43112 2.25224C2.38536 1.29673 3.74857 0.81897 5.52073 0.81897L34.7615 0.81897C36.1247 0.81897 37.1471 1.16023 37.8968 1.84274C38.6466 2.5935 38.9874 3.61726 38.9874 4.91403C38.9874 6.27905 38.6466 7.30282 37.8968 8.05358C37.1471 8.80434 36.1247 9.1456 34.7615 9.1456L10.0193 9.1456L10.0193 25.0481L32.9211 25.0481C34.3525 25.0481 35.4431 25.3893 36.1247 26.1401C36.8063 26.8226 37.2152 27.8464 37.2152 29.2114C37.2152 30.5764 36.8063 31.6684 36.1247 32.351C35.4431 33.0335 34.3525 33.3747 32.9211 33.3747L10.0193 33.3747L10.0193 50.1645L34.7615 50.1645C36.1247 50.1645 37.1471 50.574 37.8968 51.2565Z" fill="#020408"/>
<path d="M99.582 52.485L77.9071 4.57279C77.2255 3.00302 76.3394 1.84275 75.317 1.16024C74.3627 0.47773 73.204 0.136475 71.9771 0.136475C70.6139 0.136475 69.4552 0.47773 68.501 1.16024C67.4786 1.84275 66.5925 3.00302 65.9109 4.57279L44.3041 52.485C43.7588 53.7136 43.5543 54.8738 43.7588 55.8976C43.8951 56.9214 44.3723 57.6721 45.1902 58.2864C45.9399 58.9006 47.0305 59.2419 48.3255 59.2419C49.7569 59.2419 50.8475 58.8324 51.5972 58.1499C52.347 57.3991 53.0968 56.3071 53.7784 54.6691L57.7998 45.1822L85.95 45.1822L90.0396 54.6691C90.653 56.2389 91.4028 57.3991 92.2889 58.0816C93.1068 58.8324 94.3337 59.2419 95.8332 59.2419C97.0601 59.2419 98.0825 58.9006 98.8323 58.3546C99.6502 57.8086 100.059 56.9896 100.264 55.9658C100.4 54.8738 100.195 53.7136 99.582 52.485ZM61.4123 36.8555L71.7727 12.2169H71.9771L82.4057 36.8555L61.4123 36.8555Z" fill="#020408"/>
<path d="M150.566 42.0427C150.566 44.6362 150.021 47.025 148.93 49.1408C147.908 51.2565 146.34 53.0993 144.364 54.6009C142.387 56.1706 140.001 57.3309 137.207 58.1499C134.412 58.9689 131.277 59.3784 127.801 59.3784C125.415 59.3784 123.03 59.1737 120.644 58.8324C118.19 58.4912 115.941 57.9452 113.828 57.1944C111.715 56.4436 109.806 55.5564 108.102 54.4643C107.148 53.7818 106.467 53.0311 106.058 52.0756C105.649 51.12 105.58 50.2328 105.717 49.3455C105.853 48.4583 106.194 47.6392 106.739 46.9567C107.353 46.2742 108.034 45.8647 108.92 45.7282C109.806 45.5235 110.761 45.7965 111.783 46.4107C114.169 47.844 116.691 48.8678 119.417 49.5503C122.075 50.1645 124.87 50.5058 127.801 50.5058C132.095 50.5058 135.23 49.8233 137.207 48.3218C139.183 46.8885 140.138 45.0457 140.138 42.7252C140.138 40.8141 139.456 39.3126 138.093 38.2206C136.662 37.1286 134.276 36.2413 130.936 35.5588L121.939 33.6478C116.759 32.5558 112.874 30.713 110.352 28.1194C107.83 25.5259 106.535 22.1133 106.535 17.8818C106.535 15.1517 107.08 12.7629 108.171 10.5789C109.261 8.39488 110.829 6.48385 112.805 4.91408C114.782 3.3443 117.168 2.11578 119.894 1.22852C122.689 0.409506 125.688 0 129.028 0C132.367 0 135.435 0.409506 138.366 1.22852C141.296 2.04753 143.955 3.2078 146.272 4.84583C147.158 5.46008 147.772 6.1426 148.044 7.02986C148.385 7.91712 148.453 8.73614 148.249 9.6234C148.112 10.4424 147.704 11.1932 147.09 11.8074C146.545 12.4217 145.795 12.7629 144.841 12.8312C143.955 12.9677 142.932 12.6947 141.774 12.0122C139.797 10.8519 137.752 10.0329 135.639 9.55515C133.594 9.07739 131.345 8.80439 128.959 8.80439C126.438 8.80439 124.325 9.21389 122.484 9.8964C120.712 10.5789 119.349 11.6027 118.395 12.8995C117.44 14.1962 116.963 15.6977 116.963 17.404C116.963 19.3833 117.577 20.9531 118.872 22.1133C120.235 23.3419 122.416 24.2291 125.62 24.9116L134.549 26.7544C139.933 27.9147 143.955 29.6892 146.613 32.2145C149.203 34.6033 150.566 37.8793 150.566 42.0427Z" fill="#020408"/>
<path d="M200.869 4.02679C200.937 5.1188 200.528 6.21082 199.71 7.43934L182.261 32.1462V53.7136C182.261 57.3991 180.557 59.2419 177.081 59.2419C175.377 59.2419 174.082 58.6959 173.196 57.8086C172.241 56.7849 171.832 55.4881 171.832 53.7136V32.078L154.315 7.37109C153.634 6.34732 153.293 5.32356 153.361 4.23154C153.429 3.07127 153.906 2.11576 154.724 1.36499C155.542 0.545981 156.701 0.136475 158.132 0.136475C159.223 0.136475 160.245 0.409479 161.131 0.955487C162.017 1.5015 162.903 2.38876 163.721 3.48078L177.217 22.6593L190.781 3.48078C191.667 2.32051 192.485 1.43324 193.303 0.955487C194.121 0.409479 195.143 0.136475 196.37 0.136475C197.801 0.136475 198.892 0.545981 199.642 1.22849C200.46 1.97925 200.869 2.93477 200.869 4.02679Z" fill="#020408"/>
<path d="M89.0173 58.9689L71.7728 107.495C71.2275 108.929 70.4777 110.021 69.6598 110.771C68.7737 111.454 67.615 111.795 66.1155 111.795C64.6159 111.795 63.4572 111.454 62.5711 110.771C61.7532 110.021 61.0034 108.929 60.4582 107.427L47.1669 69.4796L33.7394 107.495C33.1941 108.929 32.5125 110.021 31.6264 110.771C30.8085 111.454 29.6497 111.795 28.1502 111.795C26.6507 111.795 25.492 111.454 24.6059 110.771C23.7198 110.021 22.97 108.929 22.4248 107.427L5.31655 58.9689C4.77127 57.2626 4.83943 55.7611 5.72551 54.6008C6.54343 53.3723 7.9748 52.7581 10.0196 52.7581C11.451 52.7581 12.6097 53.0993 13.4276 53.7818C14.2455 54.4643 14.9271 55.5563 15.4043 57.0579L28.5592 96.0292L42.2594 57.1261C42.8047 55.6246 43.4863 54.5326 44.3042 53.8501C45.1221 53.0993 46.1445 52.7581 47.4396 52.7581C48.8028 52.7581 49.8252 53.0993 50.5749 53.8501C51.3247 54.5326 52.0063 55.6929 52.5516 57.1944L65.9791 96.5752L79.543 57.0579C80.0201 55.6246 80.7018 54.5326 81.5197 53.8501C82.3376 53.0993 83.4282 52.7581 84.8595 52.7581C86.5635 52.7581 87.8586 53.3723 88.6765 54.6008C89.4944 55.7611 89.6307 57.2626 89.0173 58.9689Z" fill="#020408"/>
<path d="M147.567 66.5448C145.318 62.1085 142.046 58.6959 137.956 56.2389C133.799 53.8501 128.891 52.6216 123.302 52.6216C119.076 52.6216 115.259 53.3041 111.851 54.6691C108.443 56.1024 105.58 58.0817 103.127 60.6752C100.673 63.2687 98.8324 66.4083 97.5374 70.0256C96.2423 73.6429 95.5607 77.738 95.5607 82.2425C95.5607 88.2486 96.7195 93.504 98.9687 97.9403C101.286 102.377 104.49 105.857 108.716 108.314C112.873 110.771 117.713 112 123.302 112C127.46 112 131.277 111.317 134.685 109.884C138.093 108.519 141.024 106.472 143.477 103.878C145.863 101.285 147.771 98.145 149.067 94.4595C150.362 90.7739 151.043 86.6789 151.043 82.1743C151.043 76.1682 149.884 70.9811 147.567 66.5448ZM138.025 93.3675C136.729 96.507 134.821 98.8958 132.299 100.534C129.845 102.172 126.846 102.991 123.302 102.991C117.985 102.991 113.896 101.148 110.965 97.4625C107.966 93.8452 106.535 88.7946 106.535 82.2425C106.535 77.8745 107.216 74.1889 108.511 71.0494C109.874 67.9781 111.783 65.6575 114.305 64.0195C116.827 62.4497 119.826 61.6307 123.302 61.6307C128.618 61.6307 132.776 63.4052 135.707 67.0226C138.57 70.6399 140.069 75.6904 140.069 82.2425C140.069 86.5424 139.388 90.2962 138.025 93.3675Z" fill="#020408"/>
<path d="M206.458 104.765L200.323 93.3674C199.096 91.0469 197.597 89.3406 195.961 88.2486C195.211 87.7708 194.393 87.3613 193.507 87.0883C194.938 86.8153 196.233 86.3376 197.392 85.7916C200.323 84.4265 202.572 82.4473 204.14 79.8537C205.708 77.3284 206.458 74.2571 206.458 70.7081C206.458 65.248 204.754 61.0164 201.346 57.9451C197.869 54.9421 193.03 53.4406 186.691 53.4406L166.993 53.4406C165.289 53.4406 163.994 53.8501 163.039 54.8056C162.085 55.6928 161.676 56.9896 161.676 58.7641V106.403C161.676 108.11 162.085 109.406 162.971 110.43C163.926 111.317 165.221 111.795 166.856 111.795C168.629 111.795 169.924 111.317 170.81 110.43C171.696 109.406 172.105 108.11 172.105 106.403V88.0438H179.875C181.988 88.0438 183.692 88.3851 184.987 88.9994C186.35 89.6136 187.509 90.9104 188.463 92.7532L196.711 107.973C197.46 109.27 198.278 110.225 199.164 110.908C200.119 111.522 201.346 111.795 202.777 111.795C204.208 111.795 205.367 111.454 206.117 110.771C206.935 110.089 207.344 109.27 207.344 108.11C207.412 107.018 207.139 105.926 206.458 104.765ZM184.851 80.2632H172.105V61.6989H184.851C188.668 61.6989 191.462 62.4497 193.439 64.0195C195.347 65.5892 196.302 67.9098 196.302 70.9811C196.302 74.0524 195.347 76.3729 193.439 77.9427C191.462 79.5125 188.668 80.2632 184.851 80.2632Z" fill="#020408"/>
<path d="M262.962 107.632C262.962 108.86 262.69 109.816 261.872 110.635C261.122 111.454 259.963 111.795 258.395 111.795C257.1 111.795 256.078 111.522 255.26 110.976C254.442 110.43 253.556 109.679 252.534 108.656L228.405 84.4948H228.2V106.403C228.2 108.11 227.792 109.406 226.905 110.43C226.019 111.317 224.724 111.795 223.02 111.795C221.316 111.795 220.021 111.317 219.135 110.43C218.181 109.406 217.772 108.11 217.772 106.403V58.0816C217.772 56.3754 218.181 55.0103 219.135 54.1231C220.021 53.2358 221.316 52.7581 223.02 52.7581C224.724 52.7581 225.951 53.2358 226.905 54.1231C227.792 55.0103 228.2 56.3754 228.2 58.0816V78.9665H228.405L251.852 55.4198C252.738 54.5326 253.624 53.8501 254.51 53.4406C255.328 52.9628 256.351 52.7581 257.441 52.7581C259.009 52.7581 260.168 53.1676 260.849 53.9866C261.531 54.8056 261.803 55.7611 261.667 56.8531C261.531 57.9451 260.986 58.9689 260.031 59.9244L238.561 81.1505L261.19 104.219C262.349 105.311 262.962 106.472 262.962 107.632Z" fill="#020408"/>
<path d="M23.4386 147.181C23.0585 147.181 22.7474 147.086 22.5055 146.896C22.2809 146.706 22.0908 146.412 21.9353 146.015L16.3625 130.126C16.2069 129.677 16.2329 129.305 16.4402 129.012C16.6649 128.7 17.0277 128.545 17.5289 128.545C17.909 128.545 18.2028 128.631 18.4101 128.804C18.6348 128.977 18.8076 129.253 18.9285 129.634L23.9829 144.512H23.0239L28.2079 129.685C28.3634 129.305 28.5449 129.02 28.7522 128.83C28.9596 128.64 29.2361 128.545 29.5817 128.545C29.9273 128.545 30.1951 128.64 30.3852 128.83C30.5925 129.02 30.774 129.314 30.9295 129.711L36.0098 144.512H35.1545L40.2607 129.634C40.3817 129.271 40.5458 129.003 40.7532 128.83C40.9778 128.64 41.2716 128.545 41.6345 128.545C42.0837 128.545 42.4121 128.7 42.6194 129.012C42.8441 129.305 42.87 129.677 42.6972 130.126L37.0985 146.041C36.9429 146.421 36.7529 146.706 36.5282 146.896C36.3036 147.086 36.0012 147.181 35.621 147.181C35.2236 147.181 34.9125 147.086 34.6879 146.896C34.4633 146.706 34.2818 146.412 34.1436 146.015L29.2447 131.992H29.8149L24.8642 146.041C24.726 146.421 24.5445 146.706 24.3199 146.896C24.1125 147.086 23.8188 147.181 23.4386 147.181ZM53.5012 147.233C51.7732 147.233 50.2612 146.853 48.9652 146.093C47.6864 145.315 46.6928 144.227 45.9844 142.827C45.2932 141.41 44.9476 139.751 44.9476 137.85C44.9476 136.416 45.1463 135.129 45.5437 133.988C45.9412 132.83 46.5114 131.845 47.2544 131.033C47.9975 130.204 48.896 129.573 49.9501 129.141C51.0042 128.709 52.1879 128.493 53.5012 128.493C55.2464 128.493 56.7584 128.873 58.0372 129.634C59.3159 130.394 60.3008 131.474 60.992 132.874C61.7005 134.273 62.0548 135.924 62.0548 137.824C62.0548 139.259 61.856 140.555 61.4586 141.712C61.0612 142.87 60.4823 143.864 59.722 144.693C58.9789 145.523 58.0804 146.153 57.0263 146.585C55.9722 147.017 54.7972 147.233 53.5012 147.233ZM53.5012 144.9C54.7108 144.9 55.7389 144.624 56.5856 144.071C57.4496 143.518 58.1063 142.715 58.5556 141.66C59.0221 140.606 59.2554 139.336 59.2554 137.85C59.2554 135.621 58.7543 133.893 57.752 132.666C56.7498 131.439 55.3328 130.826 53.5012 130.826C52.2916 130.826 51.2548 131.102 50.3908 131.655C49.544 132.191 48.8874 132.986 48.4208 134.04C47.9716 135.094 47.7469 136.364 47.7469 137.85C47.7469 140.062 48.248 141.79 49.2503 143.034C50.2698 144.278 51.6868 144.9 53.5012 144.9ZM67.0156 147.181C66.5836 147.181 66.2466 147.06 66.0047 146.819C65.7801 146.577 65.6678 146.24 65.6678 145.808V130.1C65.6678 129.651 65.7887 129.314 66.0306 129.089C66.2726 128.847 66.6095 128.726 67.0415 128.726H73.2364C75.2063 128.726 76.727 129.193 77.7983 130.126C78.8697 131.059 79.4054 132.381 79.4054 134.092C79.4054 135.198 79.1634 136.148 78.6796 136.943C78.1958 137.738 77.4873 138.343 76.5542 138.757C75.6383 139.172 74.5324 139.38 73.2364 139.38L73.4697 139.017H74.1436C74.8348 139.017 75.431 139.189 75.9321 139.535C76.4505 139.881 76.917 140.434 77.3318 141.194L79.5609 145.341C79.7337 145.652 79.8114 145.955 79.7942 146.248C79.7942 146.525 79.6905 146.749 79.4831 146.922C79.293 147.095 79.0166 147.181 78.6537 147.181C78.2735 147.181 77.9625 147.104 77.7206 146.948C77.4959 146.775 77.2886 146.525 77.0985 146.196L74.3769 141.168C74.014 140.494 73.5993 140.045 73.1327 139.82C72.6662 139.578 72.0527 139.457 71.2924 139.457H68.3634V145.808C68.3634 146.24 68.2511 146.577 68.0265 146.819C67.8018 147.06 67.4649 147.181 67.0156 147.181ZM68.3634 137.436H72.7958C74.109 137.436 75.1026 137.159 75.7766 136.606C76.4505 136.053 76.7874 135.232 76.7874 134.144C76.7874 133.072 76.4505 132.26 75.7766 131.707C75.1026 131.154 74.109 130.878 72.7958 130.878H68.3634V137.436ZM84.5572 147.181C84.1252 147.181 83.7882 147.06 83.5463 146.819C83.3216 146.577 83.2093 146.24 83.2093 145.808V129.893C83.2093 129.444 83.3216 129.107 83.5463 128.882C83.7882 128.657 84.1252 128.545 84.5572 128.545C84.9892 128.545 85.3175 128.657 85.5421 128.882C85.784 129.107 85.905 129.444 85.905 129.893V136.943H85.9568L93.9143 129.245C94.1735 129.003 94.4154 128.83 94.64 128.726C94.882 128.605 95.1498 128.545 95.4436 128.545C95.841 128.545 96.1261 128.649 96.2989 128.856C96.489 129.046 96.5668 129.279 96.5322 129.556C96.4976 129.832 96.3508 130.1 96.0916 130.359L87.8231 138.239L87.8749 136.917L96.4804 145.212C96.7914 145.505 96.9556 145.808 96.9728 146.119C96.9901 146.43 96.8951 146.689 96.6877 146.896C96.4804 147.086 96.1866 147.181 95.8064 147.181C95.4608 147.181 95.1844 147.112 94.977 146.974C94.7696 146.836 94.5277 146.637 94.2512 146.378L85.9568 138.472H85.905V145.808C85.905 146.24 85.7927 146.577 85.568 146.819C85.3434 147.06 85.0064 147.181 84.5572 147.181ZM112.791 147.233C111.996 147.233 111.218 147.173 110.458 147.052C109.697 146.931 108.98 146.749 108.306 146.508C107.632 146.248 107.028 145.937 106.492 145.574C106.233 145.384 106.051 145.168 105.948 144.926C105.861 144.684 105.835 144.451 105.87 144.227C105.922 143.985 106.025 143.777 106.181 143.604C106.336 143.432 106.527 143.328 106.751 143.293C106.976 143.242 107.226 143.311 107.503 143.501C108.28 144.002 109.101 144.373 109.965 144.615C110.829 144.84 111.771 144.952 112.791 144.952C114.259 144.952 115.339 144.693 116.031 144.175C116.739 143.639 117.093 142.948 117.093 142.101C117.093 141.41 116.843 140.866 116.342 140.468C115.84 140.053 115.002 139.725 113.827 139.483L111.054 138.913C109.412 138.567 108.185 137.997 107.373 137.202C106.578 136.407 106.181 135.336 106.181 133.988C106.181 133.176 106.345 132.433 106.673 131.759C107.019 131.085 107.494 130.506 108.099 130.022C108.704 129.521 109.43 129.141 110.276 128.882C111.123 128.623 112.047 128.493 113.05 128.493C114.121 128.493 115.123 128.631 116.056 128.908C117.007 129.184 117.854 129.608 118.597 130.178C118.821 130.333 118.968 130.532 119.037 130.774C119.124 130.999 119.141 131.223 119.089 131.448C119.055 131.673 118.959 131.863 118.804 132.018C118.648 132.174 118.45 132.269 118.208 132.303C117.966 132.321 117.698 132.234 117.404 132.044C116.73 131.595 116.039 131.275 115.331 131.085C114.639 130.878 113.871 130.774 113.024 130.774C112.177 130.774 111.434 130.904 110.795 131.163C110.173 131.422 109.689 131.785 109.343 132.252C109.015 132.718 108.851 133.271 108.851 133.91C108.851 134.636 109.084 135.215 109.551 135.647C110.017 136.079 110.795 136.407 111.883 136.632L114.631 137.202C116.359 137.565 117.646 138.127 118.493 138.887C119.34 139.647 119.763 140.658 119.763 141.92C119.763 142.732 119.599 143.466 119.271 144.123C118.942 144.762 118.476 145.315 117.871 145.782C117.266 146.248 116.532 146.611 115.668 146.87C114.821 147.112 113.862 147.233 112.791 147.233ZM131.014 147.233C129.165 147.233 127.584 146.853 126.271 146.093C124.957 145.332 123.947 144.252 123.238 142.853C122.547 141.436 122.201 139.768 122.201 137.85C122.201 136.416 122.4 135.129 122.797 133.988C123.195 132.83 123.765 131.845 124.508 131.033C125.269 130.204 126.193 129.573 127.282 129.141C128.388 128.709 129.632 128.493 131.014 128.493C132.034 128.493 133.01 128.631 133.943 128.908C134.893 129.184 135.714 129.582 136.405 130.1C136.699 130.29 136.889 130.524 136.976 130.8C137.079 131.059 137.097 131.31 137.028 131.552C136.976 131.794 136.863 132.001 136.691 132.174C136.518 132.329 136.293 132.416 136.017 132.433C135.757 132.45 135.472 132.355 135.161 132.148C134.591 131.716 133.96 131.396 133.269 131.189C132.578 130.981 131.852 130.878 131.092 130.878C129.779 130.878 128.673 131.154 127.774 131.707C126.876 132.243 126.193 133.029 125.726 134.066C125.26 135.103 125.027 136.364 125.027 137.85C125.027 139.336 125.26 140.606 125.726 141.66C126.193 142.697 126.876 143.492 127.774 144.045C128.673 144.581 129.779 144.849 131.092 144.849C131.852 144.849 132.578 144.745 133.269 144.538C133.978 144.313 134.643 143.985 135.265 143.553C135.576 143.363 135.853 143.276 136.094 143.293C136.354 143.311 136.57 143.397 136.742 143.553C136.915 143.708 137.028 143.907 137.079 144.149C137.149 144.373 137.14 144.615 137.053 144.875C136.984 145.116 136.82 145.324 136.561 145.497C135.853 146.067 135.014 146.499 134.047 146.793C133.079 147.086 132.068 147.233 131.014 147.233ZM141.687 147.181C141.255 147.181 140.919 147.06 140.677 146.819C140.452 146.577 140.34 146.24 140.34 145.808V129.919C140.34 129.469 140.452 129.132 140.677 128.908C140.919 128.666 141.255 128.545 141.687 128.545C142.119 128.545 142.448 128.666 142.672 128.908C142.914 129.132 143.035 129.469 143.035 129.919V136.606H153.274V129.919C153.274 129.469 153.386 129.132 153.611 128.908C153.853 128.666 154.19 128.545 154.622 128.545C155.054 128.545 155.382 128.666 155.607 128.908C155.831 129.132 155.943 129.469 155.943 129.919V145.808C155.943 146.24 155.831 146.577 155.607 146.819C155.382 147.06 155.054 147.181 154.622 147.181C154.19 147.181 153.853 147.06 153.611 146.819C153.386 146.577 153.274 146.24 153.274 145.808V138.861H143.035V145.808C143.035 146.24 142.923 146.577 142.698 146.819C142.474 147.06 142.137 147.181 141.687 147.181ZM161.661 147C161.195 147 160.832 146.879 160.573 146.637C160.331 146.378 160.21 146.015 160.21 145.548V130.178C160.21 129.711 160.331 129.357 160.573 129.115C160.832 128.856 161.195 128.726 161.661 128.726L171.122 128.726C171.485 128.726 171.762 128.821 171.952 129.012C172.142 129.184 172.237 129.444 172.237 129.789C172.237 130.152 172.142 130.428 171.952 130.619C171.762 130.809 171.485 130.904 171.122 130.904H162.802V136.632H170.552C170.932 136.632 171.209 136.727 171.381 136.917C171.572 137.107 171.667 137.375 171.667 137.721C171.667 138.084 171.572 138.36 171.381 138.55C171.209 138.723 170.932 138.809 170.552 138.809H162.802V144.823H171.122C171.485 144.823 171.762 144.918 171.952 145.108C172.142 145.298 172.237 145.566 172.237 145.911C172.237 146.274 172.142 146.551 171.952 146.741C171.762 146.914 171.485 147 171.122 147H161.661ZM176.925 147C176.458 147 176.095 146.879 175.836 146.637C175.594 146.378 175.473 146.015 175.473 145.548V130.178C175.473 129.711 175.594 129.357 175.836 129.115C176.095 128.856 176.458 128.726 176.925 128.726H181.927C184.934 128.726 187.25 129.513 188.874 131.085C190.516 132.64 191.336 134.895 191.336 137.85C191.336 139.319 191.129 140.624 190.714 141.764C190.3 142.905 189.686 143.864 188.874 144.641C188.079 145.402 187.103 145.989 185.945 146.404C184.787 146.801 183.448 147 181.927 147H176.925ZM178.169 144.745H181.772C182.912 144.745 183.897 144.607 184.727 144.33C185.574 144.036 186.282 143.604 186.852 143.034C187.423 142.464 187.846 141.747 188.122 140.883C188.399 140.019 188.537 139.008 188.537 137.85C188.537 135.552 187.967 133.833 186.826 132.692C185.703 131.552 184.018 130.981 181.772 130.981H178.169V144.745ZM202.326 147.233C201.099 147.233 200.019 147.078 199.086 146.767C198.153 146.438 197.367 145.955 196.727 145.315C196.105 144.676 195.63 143.881 195.302 142.931C194.973 141.98 194.809 140.883 194.809 139.639V129.893C194.809 129.444 194.921 129.107 195.146 128.882C195.388 128.657 195.725 128.545 196.157 128.545C196.589 128.545 196.917 128.657 197.142 128.882C197.384 129.107 197.505 129.444 197.505 129.893V139.587C197.505 141.367 197.911 142.697 198.723 143.579C199.552 144.46 200.753 144.9 202.326 144.9C203.916 144.9 205.117 144.46 205.929 143.579C206.741 142.697 207.147 141.367 207.147 139.587V129.893C207.147 129.444 207.259 129.107 207.484 128.882C207.726 128.657 208.054 128.545 208.469 128.545C208.901 128.545 209.229 128.657 209.454 128.882C209.679 129.107 209.791 129.444 209.791 129.893V139.639C209.791 141.298 209.506 142.697 208.935 143.838C208.383 144.961 207.553 145.808 206.447 146.378C205.341 146.948 203.967 147.233 202.326 147.233ZM215.322 147C214.89 147 214.553 146.879 214.311 146.637C214.069 146.395 213.948 146.058 213.948 145.626V129.996C213.948 129.547 214.061 129.21 214.285 128.986C214.527 128.744 214.864 128.623 215.296 128.623C215.728 128.623 216.057 128.744 216.281 128.986C216.523 129.21 216.644 129.547 216.644 129.996V144.693H224.679C225.059 144.693 225.353 144.797 225.561 145.004C225.768 145.194 225.872 145.471 225.872 145.834C225.872 146.196 225.768 146.482 225.561 146.689C225.353 146.896 225.059 147 224.679 147H215.322ZM229.701 147C229.235 147 228.872 146.879 228.613 146.637C228.371 146.378 228.25 146.015 228.25 145.548V130.178C228.25 129.711 228.371 129.357 228.613 129.115C228.872 128.856 229.235 128.726 229.701 128.726H239.162C239.525 128.726 239.802 128.821 239.992 129.012C240.182 129.184 240.277 129.444 240.277 129.789C240.277 130.152 240.182 130.428 239.992 130.619C239.802 130.809 239.525 130.904 239.162 130.904H230.842V136.632H238.592C238.972 136.632 239.249 136.727 239.421 136.917C239.612 137.107 239.707 137.375 239.707 137.721C239.707 138.084 239.612 138.36 239.421 138.55C239.249 138.723 238.972 138.809 238.592 138.809H230.842V144.823H239.162C239.525 144.823 239.802 144.918 239.992 145.108C240.182 145.298 240.277 145.566 240.277 145.911C240.277 146.274 240.182 146.551 239.992 146.741C239.802 146.914 239.525 147 239.162 147H229.701ZM245.037 149.618C244.846 149.86 244.639 149.998 244.414 150.033C244.207 150.067 244.026 150.024 243.87 149.903C243.715 149.782 243.628 149.609 243.611 149.385C243.594 149.177 243.689 148.944 243.896 148.685C244.207 148.305 244.414 147.907 244.518 147.492C244.639 147.095 244.7 146.741 244.7 146.43L244.803 147.104C244.285 147.104 243.862 146.957 243.533 146.663C243.222 146.352 243.067 145.946 243.067 145.445C243.067 144.961 243.214 144.572 243.507 144.278C243.801 143.967 244.198 143.812 244.7 143.812C245.218 143.812 245.624 143.993 245.918 144.356C246.229 144.702 246.384 145.203 246.384 145.86C246.384 146.24 246.341 146.637 246.255 147.052C246.186 147.467 246.056 147.89 245.866 148.322C245.676 148.754 245.399 149.186 245.037 149.618ZM60.8002 169.181C60.4027 169.181 60.0917 169.069 59.8671 168.844C59.6597 168.62 59.556 168.309 59.556 167.911V151.815C59.556 151.4 59.6683 151.089 59.893 150.882C60.1176 150.657 60.42 150.545 60.8002 150.545C61.1631 150.545 61.4395 150.614 61.6296 150.752C61.837 150.873 62.0271 151.098 62.1999 151.426L68.9909 164.101H68.1874L74.9525 151.426C75.1253 151.098 75.3067 150.873 75.4968 150.752C75.6869 150.614 75.9634 150.545 76.3263 150.545C76.7064 150.545 77.0002 150.657 77.2075 150.882C77.4149 151.089 77.5186 151.4 77.5186 151.815L77.5186 167.911C77.5186 168.309 77.4149 168.62 77.2075 168.844C77.0175 169.069 76.7237 169.181 76.3263 169.181C75.9288 169.181 75.6264 169.069 75.4191 168.844C75.2117 168.62 75.108 168.309 75.108 167.911L75.108 154.537H75.6783L69.6648 165.656C69.5266 165.916 69.3797 166.106 69.2242 166.227C69.0687 166.348 68.8527 166.408 68.5762 166.408C68.2997 166.408 68.0751 166.348 67.9023 166.227C67.7295 166.088 67.5739 165.898 67.4357 165.656L61.3704 154.511H61.9925V167.911C61.9925 168.309 61.8888 168.62 61.6815 168.844C61.4914 169.069 61.1976 169.181 60.8002 169.181ZM81.7261 169.181C81.3805 169.181 81.104 169.104 80.8967 168.948C80.6893 168.793 80.5684 168.585 80.5338 168.326C80.4992 168.067 80.5511 167.773 80.6893 167.445L87.7136 151.685C87.8864 151.271 88.1024 150.977 88.3616 150.804C88.6381 150.631 88.9405 150.545 89.2688 150.545C89.5799 150.545 89.865 150.631 90.1242 150.804C90.4007 150.977 90.6253 151.271 90.7981 151.685L97.8224 167.445C97.978 167.773 98.0384 168.076 98.0039 168.352C97.9693 168.611 97.857 168.819 97.6669 168.974C97.4768 169.112 97.209 169.181 96.8634 169.181C96.4832 169.181 96.1808 169.086 95.9562 168.896C95.7316 168.706 95.5328 168.412 95.36 168.015L93.5456 163.816L94.7639 164.542H83.722L84.9143 163.816L83.1258 168.015C82.953 168.43 82.7629 168.732 82.5556 168.922C82.3482 169.095 82.0717 169.181 81.7261 169.181ZM89.217 153.707L85.3031 162.987L84.6551 162.364H93.8048L93.2087 162.987L89.2688 153.707H89.217ZM102.367 169C101.9 169 101.537 168.879 101.278 168.637C101.036 168.378 100.915 168.015 100.915 167.548L100.915 152.178C100.915 151.711 101.036 151.357 101.278 151.115C101.537 150.856 101.9 150.726 102.367 150.726H107.369C110.376 150.726 112.692 151.513 114.316 153.085C115.958 154.64 116.778 156.895 116.778 159.85C116.778 161.319 116.571 162.624 116.156 163.764C115.742 164.905 115.128 165.864 114.316 166.641C113.521 167.402 112.545 167.989 111.387 168.404C110.229 168.801 108.89 169 107.369 169L102.367 169ZM103.611 166.745H107.214C108.354 166.745 109.339 166.607 110.169 166.33C111.016 166.036 111.724 165.604 112.294 165.034C112.865 164.464 113.288 163.747 113.564 162.883C113.841 162.019 113.979 161.008 113.979 159.85C113.979 157.552 113.409 155.833 112.268 154.692C111.145 153.552 109.46 152.981 107.214 152.981H103.611L103.611 166.745ZM121.832 169C121.366 169 121.003 168.879 120.744 168.637C120.502 168.378 120.381 168.015 120.381 167.548L120.381 152.178C120.381 151.711 120.502 151.357 120.744 151.115C121.003 150.856 121.366 150.726 121.832 150.726H131.293C131.656 150.726 131.932 150.821 132.122 151.012C132.313 151.184 132.408 151.444 132.408 151.789C132.408 152.152 132.313 152.428 132.122 152.619C131.932 152.809 131.656 152.904 131.293 152.904H122.973V158.632H130.723C131.103 158.632 131.379 158.727 131.552 158.917C131.742 159.107 131.837 159.375 131.837 159.721C131.837 160.084 131.742 160.36 131.552 160.55C131.379 160.723 131.103 160.809 130.723 160.809H122.973L122.973 166.823H131.293C131.656 166.823 131.932 166.918 132.122 167.108C132.313 167.298 132.408 167.566 132.408 167.911C132.408 168.274 132.313 168.551 132.122 168.741C131.932 168.914 131.656 169 131.293 169H121.832ZM143.93 169C143.464 169 143.101 168.879 142.841 168.637C142.6 168.378 142.479 168.015 142.479 167.548V152.178C142.479 151.711 142.6 151.357 142.841 151.115C143.101 150.856 143.464 150.726 143.93 150.726L153.391 150.726C153.754 150.726 154.03 150.821 154.22 151.012C154.41 151.184 154.505 151.444 154.505 151.789C154.505 152.152 154.41 152.428 154.22 152.619C154.03 152.809 153.754 152.904 153.391 152.904H145.071V158.632H152.821C153.201 158.632 153.477 158.727 153.65 158.917C153.84 159.107 153.935 159.375 153.935 159.721C153.935 160.084 153.84 160.36 153.65 160.55C153.477 160.723 153.201 160.809 152.821 160.809H145.071V166.823H153.391C153.754 166.823 154.03 166.918 154.22 167.108C154.41 167.298 154.505 167.566 154.505 167.911C154.505 168.274 154.41 168.551 154.22 168.741C154.03 168.914 153.754 169 153.391 169H143.93ZM157.284 169.181C156.938 169.181 156.662 169.104 156.454 168.948C156.247 168.793 156.126 168.585 156.092 168.326C156.057 168.067 156.109 167.773 156.247 167.445L163.271 151.685C163.444 151.271 163.66 150.977 163.919 150.804C164.196 150.631 164.498 150.545 164.827 150.545C165.138 150.545 165.423 150.631 165.682 150.804C165.958 150.977 166.183 151.271 166.356 151.685L173.38 167.445C173.536 167.773 173.596 168.076 173.562 168.352C173.527 168.611 173.415 168.819 173.225 168.974C173.035 169.112 172.767 169.181 172.421 169.181C172.041 169.181 171.739 169.086 171.514 168.896C171.289 168.706 171.091 168.412 170.918 168.015L169.103 163.816L170.322 164.542H159.28L160.472 163.816L158.684 168.015C158.511 168.43 158.321 168.732 158.113 168.922C157.906 169.095 157.63 169.181 157.284 169.181ZM164.775 153.707L160.861 162.987L160.213 162.364H169.363L168.766 162.987L164.827 153.707H164.775ZM182.387 169.233C181.592 169.233 180.815 169.173 180.054 169.052C179.294 168.931 178.577 168.749 177.903 168.508C177.229 168.248 176.624 167.937 176.089 167.574C175.829 167.384 175.648 167.168 175.544 166.926C175.458 166.684 175.432 166.451 175.467 166.227C175.518 165.985 175.622 165.777 175.778 165.604C175.933 165.432 176.123 165.328 176.348 165.293C176.573 165.242 176.823 165.311 177.1 165.501C177.877 166.002 178.698 166.373 179.562 166.615C180.426 166.84 181.368 166.952 182.387 166.952C183.856 166.952 184.936 166.693 185.627 166.175C186.336 165.639 186.69 164.948 186.69 164.101C186.69 163.41 186.439 162.866 185.938 162.468C185.437 162.053 184.599 161.725 183.424 161.483L180.651 160.913C179.009 160.567 177.782 159.997 176.97 159.202C176.175 158.407 175.778 157.336 175.778 155.988C175.778 155.176 175.942 154.433 176.27 153.759C176.616 153.085 177.091 152.506 177.696 152.022C178.301 151.521 179.026 151.141 179.873 150.882C180.72 150.623 181.644 150.493 182.646 150.493C183.718 150.493 184.72 150.631 185.653 150.908C186.604 151.184 187.45 151.608 188.193 152.178C188.418 152.333 188.565 152.532 188.634 152.774C188.72 152.999 188.738 153.223 188.686 153.448C188.651 153.673 188.556 153.863 188.401 154.018C188.245 154.174 188.046 154.269 187.805 154.303C187.563 154.321 187.295 154.234 187.001 154.044C186.327 153.595 185.636 153.275 184.927 153.085C184.236 152.878 183.467 152.774 182.621 152.774C181.774 152.774 181.031 152.904 180.391 153.163C179.769 153.422 179.285 153.785 178.94 154.252C178.612 154.718 178.447 155.271 178.447 155.91C178.447 156.636 178.681 157.215 179.147 157.647C179.614 158.079 180.391 158.407 181.48 158.632L184.228 159.202C185.956 159.565 187.243 160.127 188.09 160.887C188.936 161.647 189.36 162.658 189.36 163.92C189.36 164.732 189.196 165.466 188.867 166.123C188.539 166.762 188.072 167.315 187.468 167.782C186.863 168.248 186.128 168.611 185.264 168.87C184.418 169.112 183.459 169.233 182.387 169.233ZM197.718 169.181C197.286 169.181 196.949 169.06 196.707 168.819C196.483 168.577 196.37 168.231 196.37 167.782V159.565L196.966 161.276L190.564 152.385C190.374 152.126 190.288 151.858 190.305 151.582C190.322 151.288 190.435 151.046 190.642 150.856C190.867 150.649 191.16 150.545 191.523 150.545C191.8 150.545 192.05 150.614 192.275 150.752C192.517 150.891 192.741 151.107 192.949 151.4L198.081 158.528H197.459L202.591 151.4C202.816 151.089 203.032 150.873 203.239 150.752C203.446 150.614 203.706 150.545 204.017 150.545C204.38 150.545 204.656 150.64 204.846 150.83C205.053 151.003 205.157 151.236 205.157 151.53C205.174 151.806 205.071 152.1 204.846 152.411L198.496 161.276L199.04 159.565V167.782C199.04 168.715 198.599 169.181 197.718 169.181Z" fill="black"/>
</svg>
